<svg width="19" height="17" fill="none" xmlns="http://www.w3.org/2000/svg"><path d="M9.394 16.664a2.19 2.19 0 01-.727-.11C5.437 15.446.305 11.514.305 5.707c0-2.96 2.393-5.36 5.335-5.36 1.429 0 2.765.558 3.754 1.555A5.254 5.254 0 0113.147.347c2.943 0 5.335 2.41 5.335 5.36 0 5.816-5.132 9.74-8.361 10.847-.212.076-.465.11-.727.11zM5.64 1.614c-2.24 0-4.067 1.835-4.067 4.093 0 5.774 5.555 8.987 7.508 9.655.152.05.482.05.634 0 1.944-.668 7.507-3.873 7.507-9.655 0-2.258-1.826-4.092-4.066-4.092-1.285 0-2.477.6-3.247 1.64-.236.321-.777.321-1.014 0a4.033 4.033 0 00-3.255-1.64z" fill="#33373A"/></svg>