<svg width="15" height="13" fill="none" xmlns="http://www.w3.org/2000/svg"><path d="M12.02.573C10 1.95 7.782 4.473 5.671 7.132l-.324.441-1.366-.855c-1.704-1.21-1.904-1.35-1.994-1.372-.148-.038-.29.067-.79.579-.59.607-.603.638-.396.943.072.11.534.772 1.031 1.473 1.035 1.466 2.066 2.989 2.515 3.711l.379.766s.266.069.57-.454c.724-1.256 1.768-3.519 2.668-4.855 1.623-3.014 4.01-4.77 5.6-6.32.555-.543.752-.392.752-.532 0-.123-.02-.165-.114-.25l-.11-.1h-.842c-.092-.001-.412.061-.677.1l-.555.166z" fill="#33373A"/></svg>