<svg width="21" height="21" fill="none" xmlns="http://www.w3.org/2000/svg"><path d="M17.444.165c-.32.082-.468.152-.75.34-.181.12-9.529 9.418-9.684 9.635-.087.119-1.35 4.602-1.35 4.79 0 .23.267.493.5.493.181 0 4.668-1.268 4.783-1.35.062-.045 2.227-2.198 4.815-4.79 3.433-3.437 4.746-4.779 4.869-4.971.303-.476.43-1.108.336-1.67a3.05 3.05 0 00-.217-.631c-.148-.312-.226-.406-.747-.927-.52-.521-.615-.595-.927-.747-.553-.266-1.066-.32-1.628-.172zm1.19 1.116c.225.11 1.058.947 1.18 1.18.083.157.1.247.1.575 0 .496-.075.656-.542 1.144l-.337.353-1.242-1.243-1.243-1.242.36-.345c.202-.189.444-.381.542-.43a1.4 1.4 0 011.181.008zm-1.572 2.76l1.21 1.21-3.826 3.823-3.823 3.826-1.21-1.21c-.664-.664-1.21-1.226-1.21-1.25 0-.054 7.555-7.609 7.609-7.609.024 0 .586.546 1.25 1.21zM9.59 13.409c-.151.05-2.637.734-2.645.73-.004-.004.123-.472.279-1.034.156-.566.324-1.168.373-1.349l.086-.32.976.976c.542.542.956.989.931.997z" fill="#33373A"/><path d="M1.969 2.2A2.635 2.635 0 00.148 3.896l-.127.349v7.28c0 6.944.004 7.293.073 7.523.152.492.316.767.685 1.136.259.258.427.39.644.496.6.3.013.283 8.667.27l7.772-.012.275-.106c.808-.316 1.378-.894 1.645-1.678.09-.262.09-.303.102-2.912.013-2.375.009-2.658-.053-2.773a.514.514 0 00-.468-.262c-.135 0-.2.029-.323.14l-.152.139-.02 2.6c-.021 2.588-.021 2.596-.116 2.83a1.6 1.6 0 01-.902.903l-.234.094-7.522.012c-4.967.004-7.6-.004-7.752-.032a1.581 1.581 0 01-1.136-.874l-.12-.254V4.328l.12-.258c.152-.328.5-.66.832-.796l.238-.094 2.584-.02c2.888-.025 2.724-.005 2.871-.317.095-.197.054-.39-.127-.566l-.143-.143-2.633.004c-2.187 0-2.67.012-2.86.061z" fill="#33373A"/></svg>