<svg width="21" height="22" fill="none" xmlns="http://www.w3.org/2000/svg"><path d="M1.333.557A1.8 1.8 0 00.057 1.83C.012 2 0 3.404 0 10.119c0 8.846-.012 8.33.234 8.756.152.254.455.55.693.669.11.053 1.436.512 2.949 1.017l2.748.919h.37c.45 0 .705-.082 1.045-.333a1.78 1.78 0 00.615-.849c.066-.188.082-.336.082-.828v-.595h1.55c1.17 0 1.613-.016 1.818-.057.849-.18 1.603-.915 1.82-1.768.091-.357.091-4.64 0-4.82a.692.692 0 00-.75-.332.76.76 0 00-.46.46c-.024.082-.04.992-.04 2.251v2.113l-.099.209c-.053.11-.172.27-.27.357-.312.266-.37.274-2.06.274H8.737l-.008-7.005-.012-7.001-.127-.271c-.287-.603-.566-.796-1.723-1.181l-.857-.287h2.875c3.195-.004 3.088-.013 3.42.27.1.086.218.246.271.357l.099.21v2.112c0 1.3.016 2.17.04 2.264.058.2.313.426.53.463.217.037.517-.102.648-.303l.094-.14V4.81c0-2.468 0-2.485-.258-2.997a2.485 2.485 0 00-.443-.583c-.25-.258-.377-.349-.656-.48a2.978 2.978 0 00-.587-.205c-.37-.07-10.435-.057-10.71.012zM4.54 2.72c2.277.759 2.732.923 2.802 1.009.082.107.082.156.082 8.142v8.039l-.14.139c-.094.094-.176.14-.258.14-.11 0-5.307-1.71-5.496-1.81a.479.479 0 01-.156-.176c-.061-.115-.066-.783-.053-8.129.012-7.94.012-8.006.094-8.096a.45.45 0 01.328-.16c.045-.004 1.304.402 2.797.902z" fill="#33373A"/><path d="M16.796 5.807a.722.722 0 00-.373.456c-.066.352-.058.365 1.185 1.607l1.157 1.161h-6.891l-.16.095a.646.646 0 00.02 1.136c.152.078.255.082 3.594.082h3.437L17.608 11.5c-1.247 1.251-1.251 1.26-1.181 1.62.037.202.283.448.484.485.373.07.316.118 2.215-1.777.968-.963 1.784-1.8 1.817-1.862a.73.73 0 000-.557c-.095-.173-3.515-3.569-3.647-3.618a.702.702 0 00-.5.016z" fill="#33373A"/></svg>