<svg width="20" height="19" fill="none" xmlns="http://www.w3.org/2000/svg"><path d="M16.664 6.927h-9.5a.598.598 0 01-.594-.593c0-.325.27-.594.594-.594h9.5c.325 0 .594.269.594.593 0 .325-.27.594-.594.594z" fill="#22232C"/><path d="M14.44 14.052H6.008a2.812 2.812 0 01-2.066-.91 2.829 2.829 0 01-.736-2.138l.657-7.885a.861.861 0 00-.23-.665.856.856 0 00-.64-.277h-1.37a.598.598 0 01-.594-.594c0-.324.269-.593.594-.593H3a2.06 2.06 0 011.512.665c.214.237.372.514.46.823h9.887c.8 0 1.536.317 2.074.887.53.578.8 1.33.737 2.13l-.428 5.937c-.087 1.449-1.354 2.62-2.802 2.62zM5.01 3.658l-.617 7.441c-.04.46.111.895.42 1.235.309.34.736.523 1.195.523h8.432c.823 0 1.567-.697 1.63-1.52l.428-5.938a1.615 1.615 0 00-1.63-1.75H5.01v.009zm7.894 14.352a1.588 1.588 0 01-1.584-1.583c0-.87.713-1.583 1.584-1.583.87 0 1.583.712 1.583 1.583 0 .87-.713 1.583-1.583 1.583zm0-1.979a.392.392 0 00-.396.396c0 .222.174.396.396.396a.392.392 0 00.396-.396.392.392 0 00-.396-.396zM6.57 18.01c-.87 0-1.583-.712-1.583-1.583 0-.87.712-1.583 1.583-1.583s1.583.712 1.583 1.583c0 .87-.712 1.583-1.583 1.583zm0-1.979a.392.392 0 00-.396.396c0 .222.174.396.396.396a.392.392 0 00.396-.396.392.392 0 00-.396-.396z" fill="#33373A"/></svg>