<svg width="25" height="25" fill="none" xmlns="http://www.w3.org/2000/svg"><path d="M21.875 9.115h-12.5a.787.787 0 01-.781-.781c0-.427.354-.781.781-.781h12.5c.427 0 .781.354.781.781a.787.787 0 01-.781.781z" fill="#DA2D70"/><path d="M18.948 18.49H7.854a3.7 3.7 0 01-2.719-1.198 3.722 3.722 0 01-.968-2.812L5.03 4.105a1.133 1.133 0 00-.302-.875 1.127 1.127 0 00-.844-.365H2.083a.787.787 0 01-.78-.781c0-.427.353-.781.78-.781h1.813c.76 0 1.479.323 1.99.875.28.312.489.677.604 1.083H19.5a3.72 3.72 0 012.73 1.167c.697.76 1.051 1.75.968 2.802l-.563 7.812c-.114 1.907-1.78 3.448-3.687 3.448zM6.542 4.813l-.813 9.792a2.118 2.118 0 00.552 1.625c.407.448.969.687 1.573.687l11.094-2.437c1.083 0 2.062 1.52 2.146.437l.562-7.812c.042-.615-.156-1.198-.562-1.625a2.132 2.132 0 00-1.584-.677H6.542v.01zm10.385 18.885a2.09 2.09 0 01-2.083-2.083 2.09 2.09 0 012.083-2.084 2.09 2.09 0 012.083 2.084 2.09 2.09 0 01-2.083 2.083zm0-2.604a.515.515 0 00-.52.52c0 .292.228.521.52.521.292 0 .52-.229.52-.52a.515.515 0 00-.52-.521zm-8.333 2.604a2.09 2.09 0 01-2.084-2.083 2.09 2.09 0 012.084-2.084 2.09 2.09 0 012.083 2.084 2.09 2.09 0 01-2.083 2.083zm0-2.604a.515.515 0 00-.521.52c0 .292.23.521.52.521a.516.516 0 00.522-.52.516.516 0 00-.521-.521z" fill="#DA2D70"/></svg>