<svg width="17" height="17" fill="none" xmlns="http://www.w3.org/2000/svg"><path d="M1.425 1.031a.767.767 0 00-.41.422.6.6 0 000 .517c.045.107 1.017 1.104 3.252 3.339l3.187 3.19-3.207 3.208C.793 15.17.904 15.046.969 15.403a.843.843 0 00.628.627c.357.066.234.177 3.696-3.277L8.5 9.546l3.211 3.207c3.458 3.454 3.335 3.343 3.692 3.277a.843.843 0 00.627-.627c.066-.357.177-.234-3.277-3.696L9.546 8.5l3.207-3.212c3.454-3.457 3.343-3.334 3.277-3.691a.843.843 0 00-.627-.628c-.357-.065-.234-.176-3.696 3.278L8.5 7.454 5.309 4.267C3.074 2.032 2.077 1.06 1.97 1.015a.596.596 0 00-.545.016z" fill="#000"/></svg>