<svg width="46" height="45" viewBox="0 0 46 45" fill="none" xmlns="http://www.w3.org/2000/svg">
<g clip-path="url(#clip0_918_20014)">
<path d="M7.28515 5.97152C6.79297 6.23548 6.7666 6.39851 6.69629 8.96045C6.63476 11.2817 6.63476 11.2895 6.82812 11.4991C7.07422 11.7786 7.53125 11.7941 7.79492 11.5457C7.94433 11.3982 7.9707 11.274 7.9707 10.5908C7.9707 10.156 7.99707 9.1623 8.03222 8.39372L8.08496 6.98077H8.62988H9.18359L9.22754 8.19963C9.28027 9.55824 9.38574 10.0318 9.86914 10.9013C10.748 12.4851 12.3301 13.6496 14.2637 14.1387C14.8174 14.2706 15.1865 14.3095 16.0566 14.3095C17.3662 14.3172 17.9463 14.2008 19.0889 13.7039C20.4863 13.0906 21.5498 12.1512 22.2529 10.8935C22.7099 10.0784 22.9121 9.28651 22.9736 8.04436L23.0264 6.98077H23.5361H24.0371L24.0986 7.69501C24.1338 8.09094 24.1426 9.69021 24.125 11.2507C24.0898 13.7505 24.0635 14.193 23.8877 15.0159C23.6592 16.1028 22.3935 21.2733 22.332 21.3587C22.3057 21.3975 19.4844 21.4208 16.0566 21.4208C10.2031 21.4208 9.82519 21.413 9.78125 21.281C9.68457 20.9938 8.49804 16.1339 8.33105 15.3265C8.23437 14.8529 8.1289 14.2474 8.10254 13.9679C8.06738 13.6884 8.00586 13.3701 7.95312 13.2536C7.77734 12.8344 7.06543 12.8034 6.81933 13.1993C6.59961 13.5719 6.86328 15.0004 7.97949 19.511L8.59472 21.9797L8.28711 22.5387C6.43262 25.9081 4.10351 34.083 3.25977 40.1928L3.11035 41.2952L3.30371 41.4815C3.48828 41.6601 3.55859 41.6679 5.09668 41.7067C7.59277 41.7688 8.88476 42.056 13.5078 43.5854C16.373 44.5326 17.7881 44.9363 19.1504 45.208C21.4707 45.666 23.3164 45.6816 25.2851 45.2468C26.6474 44.944 28.4756 44.1366 29.0996 43.5544L29.3633 43.3137L29.1875 41.8464L29.0205 40.3791L29.416 40.3248C30.2158 40.2161 30.4267 40.0375 30.875 39.0826C31.7187 37.3126 33.0283 35.6589 34.6806 34.2926C35.5683 33.555 36.79 32.8486 36.9043 33.0038C36.9043 33.0194 36.9394 34.51 36.9658 36.3266C37.0185 39.3932 37.0273 39.6416 37.1855 39.8434C37.4756 40.2161 37.8008 40.3248 38.7324 40.3248C39.7519 40.3248 40.0683 40.2006 40.3232 39.7192C40.4726 39.4242 40.4902 39.1835 40.4902 37.1029C40.4902 35.426 40.5254 34.704 40.6133 34.4168C40.6748 34.1994 41 33.5085 41.3164 32.8719C42.0722 31.4123 42.248 30.8068 42.248 29.7354C42.248 27.2822 41.2812 25.2637 39.8047 24.6271C39.3828 24.4485 39.2685 24.433 38.5742 24.4641C36.8955 24.5572 35.6474 25.2559 34.4873 26.7776C34.2412 27.0959 33.5381 28.2526 32.9228 29.3395C31.6572 31.5831 30.6992 32.9184 29.7764 33.7414C28.7217 34.673 27.8691 34.9137 27.0869 34.51C26.7178 34.3159 26.4541 34.0209 26.0674 33.3765C25.9531 33.1902 25.7158 32.9495 25.5488 32.8486C25.1709 32.6157 24.7226 32.6467 23.6152 32.9495C20.5039 33.819 18.5439 35.527 17.8935 37.9181C17.5508 39.1991 17.6738 39.8978 18.2803 40.185C18.5351 40.3092 18.957 40.3248 23.1055 40.3481L27.6582 40.3714L27.7021 40.5422C27.7285 40.6353 27.7988 41.1865 27.8691 41.761C27.9746 42.6849 27.9746 42.8246 27.8515 42.9411C27.6318 43.174 26.0586 43.8416 25.2764 44.0435C23.668 44.4472 21.7871 44.4937 19.9502 44.1677C18.4648 43.9037 17.0498 43.5078 13.9912 42.4985C9.51757 41.0235 7.87402 40.6353 5.71191 40.5422C5.07031 40.5189 4.54297 40.4878 4.54297 40.4723C4.54297 40.3636 4.94726 37.988 5.12305 37.0641C6.11621 31.8471 7.91797 25.9779 9.37695 23.2219L9.71972 22.5853H11.2139C12.0576 22.5853 12.7168 22.6164 12.7168 22.6552C12.7168 22.694 12.6201 23.2762 12.5059 23.9594C12.3828 24.6348 12.2246 25.6674 12.1367 26.2496C12.0049 27.2434 12.0049 27.3365 12.1367 27.5151C12.3916 27.8567 12.9541 27.8644 13.1914 27.5306C13.2617 27.4375 13.4199 26.6456 13.5518 25.7683C13.6748 24.891 13.8506 23.8274 13.9297 23.4005L14.0791 22.6241H16.1885H18.2978L18.4473 23.3616C18.5264 23.7653 18.7021 24.8522 18.834 25.7683C19.0537 27.2201 19.1064 27.4607 19.2822 27.6082C19.5371 27.8412 19.8799 27.8334 20.1611 27.585C20.3721 27.3986 20.3808 27.3521 20.3281 26.8707C20.2754 26.3894 19.8271 23.5557 19.6953 22.8725L19.6338 22.5853H21.084H22.5342L22.8682 23.2219C23.7383 24.9066 24.6523 27.4064 25.6015 30.6981C26.0937 32.4216 26.1992 32.6001 26.665 32.6001C26.9199 32.6001 27.3066 32.2741 27.3066 32.0567C27.3066 31.9635 27.166 31.3968 26.9902 30.7913C26.0146 27.3521 24.8633 24.2156 23.9228 22.4766L23.5889 21.8555L23.8174 20.9239C23.9404 20.4038 24.2656 19.0917 24.5293 17.9971C25.417 14.4104 25.3818 14.6122 25.4346 11.2507C25.4521 9.60482 25.4346 7.83475 25.3906 7.30684C25.3203 6.37522 25.3027 6.34417 25.0303 6.1035L24.7578 5.85507L23.668 5.83178C21.831 5.7852 21.708 5.90165 21.6465 7.79593C21.6113 8.85176 21.5762 9.13124 21.3828 9.65916C20.8291 11.2118 19.5371 12.3919 17.7969 12.9431C17.2344 13.1217 17.0234 13.1449 16.0566 13.1449C15.0898 13.1449 14.8789 13.1217 14.3164 12.9431C12.6113 12.3997 11.3105 11.2351 10.7656 9.77561C10.6162 9.37191 10.5723 8.9915 10.5283 7.87357C10.4668 6.3597 10.4228 6.21995 9.96582 5.97152C9.72851 5.83954 9.51757 5.81625 8.62988 5.81625C7.72461 5.81625 7.53125 5.83954 7.28515 5.97152ZM39.4443 25.7916C40.3408 26.3195 40.9912 28.1439 40.9121 29.9218C40.8681 30.8922 40.7978 31.094 40.0508 32.5303C39.207 34.1373 39.2334 34.0209 39.1806 36.7536L39.1279 39.1603H38.7324H38.3369L38.2842 36.0937C38.2314 32.9029 38.1875 32.5225 37.8183 32.0179C37.4316 31.4977 36.5263 31.6452 35.1728 32.4371C34.3994 32.8874 32.5185 34.5255 31.7803 35.395C30.8047 36.544 29.8818 38.019 29.4775 39.0593C29.4248 39.1913 29.0996 39.1991 24.2305 39.1991H19.0449V38.9041C19.0449 38.4383 19.2822 37.7395 19.6777 37.0253C19.9678 36.4896 20.1787 36.2412 20.8027 35.69C21.4795 35.1 21.6904 34.968 22.5693 34.5876C23.123 34.3547 23.8525 34.0907 24.2041 34.0053L24.8369 33.8578L25.1182 34.2926C26.0586 35.7599 27.6406 36.2334 29.2578 35.5347C30.8574 34.8283 32.2812 33.1669 34.1357 29.8053C35.4453 27.4297 36.166 26.5214 37.1328 26.0245C37.9765 25.582 38.9345 25.4888 39.4443 25.7916Z" fill="#22232C"/>
<path d="M28.554 10.6287C28.3519 10.7374 28.1761 10.947 28.0003 11.2809C27.7103 11.8321 27.7191 12.1038 28.0355 12.2979C28.4486 12.5541 28.9232 12.36 29.1429 11.8476L29.2396 11.638H30.514H31.7884L31.7357 11.8476C31.6917 12.0727 31.2611 14.7356 31.2611 14.7899C31.2611 14.8055 30.4701 14.821 29.5033 14.821C28.5365 14.821 27.7455 14.8055 27.7455 14.7899C27.7455 14.7744 27.807 14.6347 27.8773 14.4872C28.1497 13.9127 27.93 13.5012 27.3675 13.5012C26.9808 13.5012 26.8665 13.6254 26.4359 14.5027C26.0052 15.3877 25.9349 15.6517 26.0931 15.97C26.2337 16.2805 33.4935 23.4928 33.8538 23.6868C34.2494 23.8965 34.7767 23.8732 35.1546 23.6092C35.4886 23.3841 42.6077 16.3426 42.7659 16.0787C42.9857 15.706 42.8714 15.3489 41.9046 13.3382C40.6654 10.7685 40.6829 10.7918 40.3665 10.621C40.1117 10.4812 39.8216 10.4735 34.4691 10.4735C28.9759 10.4735 28.8353 10.4812 28.554 10.6287ZM36.0335 13.0897C36.1654 13.8971 36.2708 14.6114 36.2708 14.6812C36.2708 14.8132 36.1214 14.821 34.4163 14.821H32.5619L32.6146 14.6036C32.641 14.4872 32.7464 13.8661 32.8431 13.2295C32.9398 12.5851 33.0453 11.9718 33.0716 11.8476L33.1244 11.638H34.4603H35.805L36.0335 13.0897ZM40.0413 12.4298C40.2523 12.8724 40.595 13.5866 40.806 14.0291L41.1839 14.821L39.4085 14.8055L37.6331 14.7822L37.3958 13.3459C37.2728 12.5541 37.1585 11.8476 37.1585 11.77C37.1497 11.6535 37.264 11.638 38.4066 11.638H39.6634L40.0413 12.4298ZM32.0609 18.5474C32.5355 19.9293 32.9134 21.0706 32.9046 21.0783C32.8958 21.0861 31.7269 19.9371 30.3119 18.5397L27.7367 15.9855L29.4681 16.001L31.1995 16.0243L32.0609 18.5474ZM36.2708 16.1874C36.0423 16.6997 36.2884 17.1733 36.7806 17.1733C37.1673 17.1733 37.387 16.9715 37.554 16.4435L37.7035 15.9855H39.4085H41.1136L40.9554 16.1641C40.5775 16.5911 36.0687 21.0317 36.0335 21.0085C36.0247 20.9929 36.1654 20.5116 36.3587 19.9371C36.7454 18.7959 36.7367 18.5785 36.306 18.3999C35.6908 18.1593 35.5062 18.3844 34.9437 20.0458C34.68 20.8144 34.4515 21.3811 34.4163 21.3268C34.3724 21.2491 33.3001 18.1593 32.6146 16.1175C32.5706 15.9933 32.7025 15.9855 34.4603 15.9855H36.3587L36.2708 16.1874Z" fill="#22232C"/>
</g>
<defs>
<clipPath id="clip0_918_20014">
<rect width="45" height="45" fill="white" transform="translate(0.5)"/>
</clipPath>
</defs>
</svg>
