<svg width="48" height="51" viewBox="0 0 48 51" fill="none" xmlns="http://www.w3.org/2000/svg">
<path d="M36.4 28.7552C35.8505 28.9415 35.4912 29.2139 34.681 30.0741C34.2935 30.4756 33.3002 31.515 32.4759 32.3752L30.9753 33.945L30.6583 33.6439C30.2497 33.2569 29.6861 32.9988 29.0943 32.9199C28.8337 32.8913 26.8822 32.8626 24.7546 32.8554H20.8869L20.2317 32.6404C19.2384 32.3178 18.4704 32.2031 17.3151 32.2031C15.3284 32.2031 13.7292 32.6691 12.1863 33.687C11.3973 34.2102 10.3335 35.2927 9.82622 36.0883L9.4317 36.7048L8.93855 36.7407C8.1002 36.8052 7.96634 36.9055 5.88806 39.0202L4 40.9341V41.271V41.6151L8.05793 45.7871C10.2912 48.0738 12.1863 49.9877 12.2708 50.0379C12.4681 50.1526 12.7006 50.1526 12.9331 50.0307C13.0387 49.9734 13.9687 49.063 14.9973 48.0021C17.1389 45.8086 17.1389 45.8014 17.0967 44.7692L17.0685 44.2172L17.6039 43.7154C18.4564 42.9054 18.0125 42.9628 23.7965 42.9628C26.847 42.9628 28.9957 42.9341 29.355 42.8911C30.5386 42.7334 31.7432 42.2101 32.6521 41.4431C33.1734 41.0058 39.6266 33.1278 39.8309 32.6762C39.9789 32.368 40 32.2031 40 31.4935C40 30.7336 39.9859 30.6333 39.8027 30.239C39.528 29.6584 39.0489 29.1709 38.4642 28.8914C37.8583 28.6046 37.02 28.5473 36.4 28.7552ZM37.9147 30.2247C38.3726 30.4899 38.6121 30.8555 38.6474 31.3357C38.6685 31.6081 38.6403 31.8375 38.5699 32.0096C38.436 32.3321 32.4971 39.5937 31.863 40.2101C31.3487 40.7119 30.6935 41.0847 29.9256 41.3212C29.4043 41.4861 29.355 41.4861 23.9022 41.5291C20.0978 41.5578 18.3366 41.5936 18.1816 41.651C17.6955 41.823 17.1037 42.2029 16.6317 42.6402L16.1386 43.099L13.384 40.289L10.6223 37.479L10.9605 36.9414C12.3131 34.8052 14.5534 33.6368 17.301 33.6368C18.3789 33.6368 19.0552 33.7443 19.8935 34.0525L20.4501 34.2533L24.7828 34.2891C29.1014 34.3249 29.1155 34.3249 29.4114 34.4826C30.4258 35.0346 30.4258 36.4826 29.4114 37.0346C29.1225 37.1923 29.0661 37.1923 25.8888 37.2281L22.6552 37.264L22.4861 37.4647C22.2466 37.7514 22.2607 38.0955 22.5213 38.3894L22.7256 38.6259L25.6634 38.6474C28.8055 38.6689 29.355 38.6331 29.9538 38.3535C30.9331 37.8948 31.6939 36.6403 31.6094 35.6224C31.5883 35.3859 31.701 35.2497 33.9624 32.8769C35.3644 31.4146 36.4634 30.3178 36.6325 30.2175C37.02 30.0024 37.5413 30.0024 37.9147 30.2247ZM12.5386 41.4359L15.6947 44.6473V44.9699V45.2925L14.1871 46.8122C13.3558 47.6509 12.6513 48.339 12.616 48.339C12.5879 48.339 11.0027 46.7548 9.10763 44.8265L5.65558 41.3141L7.21957 39.7227L8.78356 38.1385L9.07945 38.1815C9.3683 38.2173 9.53033 38.375 12.5386 41.4359Z" fill="#33373A"/>
<path d="M10.273 11.5242C11.4637 11.5242 12.3293 11.7396 12.8698 12.1705C13.4181 12.5935 13.6923 13.1888 13.6923 13.9565C13.6923 14.4343 13.5787 14.8612 13.3515 15.2372C13.1322 15.6132 12.7993 15.9109 12.3528 16.1302C11.9063 16.3417 11.3579 16.4475 10.7078 16.4475C10.1203 16.4475 9.56017 16.3535 9.0275 16.1655C8.50267 15.9696 8.07967 15.7111 7.7585 15.39L8.16975 14.7202C8.44392 15.0022 8.80425 15.2333 9.25075 15.4135C9.69725 15.5858 10.179 15.672 10.696 15.672C11.3775 15.672 11.9023 15.5192 12.2705 15.2137C12.6465 14.9082 12.8345 14.5009 12.8345 13.9917C12.8345 13.4277 12.623 13.0008 12.2 12.711C11.7848 12.4211 11.0798 12.2762 10.085 12.2762H8.33425L8.75725 8.15195H13.2575V8.90395H9.4975L9.2155 11.5242H10.273ZM17.786 16.4475C17.1515 16.4475 16.5836 16.279 16.0823 15.9422C15.5888 15.6054 15.201 15.1236 14.919 14.497C14.6449 13.8625 14.5078 13.1183 14.5078 12.2645C14.5078 11.4106 14.6449 10.6704 14.919 10.0437C15.201 9.4092 15.5888 8.92354 16.0823 8.5867C16.5836 8.24987 17.1515 8.08145 17.786 8.08145C18.4205 8.08145 18.9845 8.24987 19.478 8.5867C19.9794 8.92354 20.371 9.4092 20.653 10.0437C20.935 10.6704 21.076 11.4106 21.076 12.2645C21.076 13.1183 20.935 13.8625 20.653 14.497C20.371 15.1236 19.9794 15.6054 19.478 15.9422C18.9845 16.279 18.4205 16.4475 17.786 16.4475ZM17.786 15.672C18.2639 15.672 18.6829 15.5388 19.0433 15.2725C19.4114 15.0061 19.6974 14.6184 19.901 14.1092C20.1047 13.6 20.2065 12.9851 20.2065 12.2645C20.2065 11.5438 20.1047 10.9289 19.901 10.4197C19.6974 9.91054 19.4114 9.52279 19.0433 9.25645C18.6829 8.99012 18.2639 8.85695 17.786 8.85695C17.3082 8.85695 16.8852 8.99012 16.517 9.25645C16.1567 9.52279 15.8747 9.91054 15.671 10.4197C15.4674 10.9289 15.3655 11.5438 15.3655 12.2645C15.3655 12.9851 15.4674 13.6 15.671 14.1092C15.8747 14.6184 16.1567 15.0061 16.517 15.2725C16.8852 15.5388 17.3082 15.672 17.786 15.672ZM25.3073 16.4475C24.6728 16.4475 24.1049 16.279 23.6036 15.9422C23.1101 15.6054 22.7223 15.1236 22.4403 14.497C22.1661 13.8625 22.0291 13.1183 22.0291 12.2645C22.0291 11.4106 22.1661 10.6704 22.4403 10.0437C22.7223 9.4092 23.1101 8.92354 23.6036 8.5867C24.1049 8.24987 24.6728 8.08145 25.3073 8.08145C25.9418 8.08145 26.5058 8.24987 26.9993 8.5867C27.5006 8.92354 27.8923 9.4092 28.1743 10.0437C28.4563 10.6704 28.5973 11.4106 28.5973 12.2645C28.5973 13.1183 28.4563 13.8625 28.1743 14.497C27.8923 15.1236 27.5006 15.6054 26.9993 15.9422C26.5058 16.279 25.9418 16.4475 25.3073 16.4475ZM25.3073 15.672C25.7851 15.672 26.2042 15.5388 26.5646 15.2725C26.9327 15.0061 27.2186 14.6184 27.4223 14.1092C27.626 13.6 27.7278 12.9851 27.7278 12.2645C27.7278 11.5438 27.626 10.9289 27.4223 10.4197C27.2186 9.91054 26.9327 9.52279 26.5646 9.25645C26.2042 8.99012 25.7851 8.85695 25.3073 8.85695C24.8295 8.85695 24.4065 8.99012 24.0383 9.25645C23.678 9.52279 23.396 9.91054 23.1923 10.4197C22.9886 10.9289 22.8868 11.5438 22.8868 12.2645C22.8868 12.9851 22.9886 13.6 23.1923 14.1092C23.396 14.6184 23.678 15.0061 24.0383 15.2725C24.4065 15.5388 24.8295 15.672 25.3073 15.672ZM34.2118 13.6157V14.3325H36.8555V14.8495H34.2118V16.377H33.3423V14.8495H32.1085V14.3325H33.3423V8.15195H36.4208C37.4783 8.15195 38.3008 8.39087 38.8883 8.8687C39.4836 9.3387 39.7813 10.0085 39.7813 10.878C39.7813 11.7553 39.4836 12.4329 38.8883 12.9107C38.3008 13.3807 37.4783 13.6157 36.4208 13.6157H34.2118ZM34.2118 8.90395V12.8755H36.4325C37.2315 12.8755 37.8425 12.7031 38.2655 12.3585C38.6964 12.0138 38.9118 11.5242 38.9118 10.8897C38.9118 10.2552 38.6964 9.76562 38.2655 9.42095C37.8425 9.07629 37.2315 8.90395 36.4325 8.90395H34.2118Z" fill="#22232C"/>
<rect x="0.85" y="1.22695" width="46.3" height="22.3" rx="11.15" stroke="#22232C" stroke-width="0.7"/>
</svg>
