<svg width="48" height="47" viewBox="0 0 48 47" fill="none" xmlns="http://www.w3.org/2000/svg">
<g clip-path="url(#clip0_819_23105)">
<path d="M17.5283 1.22089C16.5828 1.54218 15.7016 2.28574 15.4537 2.98339C15.3527 3.25879 15.3068 3.29551 15.1049 3.23125C14.9764 3.20371 14.5725 3.17617 14.2236 3.17617C13.0211 3.19453 11.8094 4.00234 11.3137 5.11308C11.0016 5.8291 10.9924 6.94902 11.2953 7.74765C11.3412 7.85781 11.2953 7.89453 11.1301 7.89453C10.7354 7.89453 10.3498 8.07812 10.2397 8.3168C10.0928 8.63808 10.1111 8.74824 10.3315 9.03281L10.515 9.27148H13.0854H15.6465V12.4936V15.7248L15.2334 15.6697C13.5443 15.4311 11.8553 15.5229 10.2488 15.9268C9.41349 16.1471 9.22071 16.1562 6.81564 16.1562H4.26368L4.28204 12.7322L4.30958 9.31738L6.12716 9.27148C7.79786 9.22558 7.9631 9.20723 8.08243 9.05117C8.27521 8.78496 8.24767 8.3168 8.01818 8.11484C7.84376 7.95879 7.64181 7.94043 6.14552 7.91289C3.91486 7.87617 3.48341 8.00468 3.07032 8.82168C2.89591 9.16133 2.88673 9.38164 2.88673 15.0639V20.9572L2.57462 21.4254C2.09728 22.1506 1.46388 23.4633 1.16095 24.3812C-0.00487065 27.8695 0.417395 31.7801 2.29923 34.9746C3.0795 36.2965 3.49259 36.5902 3.99747 36.1771C4.33712 35.9109 4.27286 35.4979 3.77716 34.7635C2.96935 33.5518 2.41857 32.2391 2.0881 30.7336C1.95958 30.1461 1.92286 29.6045 1.93204 28.3193C1.94122 26.7771 1.95958 26.5936 2.22579 25.5838C2.75821 23.5367 3.7588 21.8018 5.27345 20.2871C6.89825 18.6531 8.83517 17.6066 11.1484 17.1109C12.2225 16.8814 14.5633 16.8814 15.6281 17.1109C19.8049 18.0105 23.0453 20.8838 24.3305 24.8219L24.5875 25.6113L24.0459 26.1621C23.7522 26.4559 23.4768 26.6854 23.4492 26.667C23.4125 26.6395 23.3574 26.465 23.3207 26.2723C23.2932 26.0703 23.1555 25.5838 23.027 25.1891C21.852 21.6641 18.7768 19.0478 15.1049 18.4145C9.93673 17.5332 4.9338 20.7553 3.55685 25.8408C3.33653 26.6762 3.309 26.9148 3.309 28.4111C3.29982 29.9441 3.31818 30.1277 3.55685 30.9723C4.3463 33.818 6.17306 36.1037 8.69747 37.4164C10.2672 38.2334 11.6074 38.5547 13.3975 38.5547C15.5639 38.5547 17.4641 37.9672 19.199 36.7555L19.7682 36.3607L20.4383 36.5994C20.8055 36.7371 21.1268 36.8656 21.1543 36.884C21.292 36.9941 19.5938 38.1875 18.5106 38.7291C15.8943 40.0418 12.7457 40.2988 9.93673 39.4176C8.93614 39.1055 7.50411 38.3895 6.6504 37.7652C5.88849 37.2145 5.51212 37.1318 5.22755 37.4531C5.13575 37.5541 5.06232 37.7744 5.06232 37.9305C5.06232 38.2793 5.43868 38.6373 6.59532 39.3717C11.4055 42.3918 17.8221 41.8135 22.0447 37.9672C22.3477 37.6826 22.6414 37.4531 22.6873 37.4531C22.7607 37.4531 24.4865 38.0865 24.5324 38.1324C24.5416 38.1508 25.1108 39.6838 25.7992 41.5473C26.4785 43.4107 27.1211 45.0631 27.2221 45.2283C27.4424 45.5771 28.0574 45.8984 28.5348 45.8984C28.7184 45.8984 29.0213 45.8158 29.2141 45.724C29.7281 45.4486 47.1879 27.943 47.3623 27.5207C47.6193 26.8781 47.4908 26.2447 46.9768 25.7766C46.7014 25.5104 44.6359 24.6934 44.2412 24.6934C43.7088 24.6934 43.415 25.3818 43.7731 25.7857C43.8649 25.8775 44.3147 26.0979 44.7736 26.2631C45.8293 26.6303 46.1231 26.7771 46.1231 26.924C46.1231 27.0893 28.6541 44.5215 28.4889 44.5215C28.3787 44.5215 28.0207 43.6311 27.0844 41.0883C26.3867 39.1973 25.7441 37.5266 25.6432 37.3705C25.5514 37.2236 25.3219 37.0125 25.1291 36.9207C24.9363 36.8289 23.284 36.1955 21.4572 35.5254C18.9604 34.6166 18.125 34.2678 18.125 34.1576C18.125 33.9924 35.5572 16.5234 35.7225 16.5234C35.8969 16.5234 35.9887 16.7621 37.2738 20.2871C38.6783 24.1426 38.5865 24.0049 40.0645 24.5373C41.1385 24.9137 41.524 24.9596 41.7443 24.7117C41.9279 24.5098 41.9463 24.06 41.7902 23.8396C41.726 23.757 41.2395 23.5184 40.7162 23.3164C40.193 23.1236 39.7524 22.94 39.7248 22.9125C39.6973 22.8941 39.1098 21.3152 38.4029 19.4059C37.0719 15.7799 36.9525 15.5412 36.3283 15.275C35.6857 14.9996 35.0891 15.174 34.3731 15.8441L33.9141 16.2756V12.6771C33.9141 8.73906 33.9232 8.79414 33.3633 8.32597C33.2072 8.18828 32.9318 8.0414 32.7391 7.98632C32.5371 7.93125 31.0316 7.89453 28.9203 7.89453C25.6524 7.89453 25.4504 7.88535 25.5147 7.72929C25.8268 6.9582 25.8084 5.70976 25.4688 5.04882C24.9731 4.07578 24.2846 3.51582 23.2656 3.24961C22.724 3.11191 22.0539 3.12109 21.6592 3.26797C21.5766 3.30468 21.4572 3.17617 21.3012 2.87324C21.0074 2.27656 20.4291 1.7166 19.8049 1.41367C19.199 1.11074 18.125 1.02812 17.5283 1.22089ZM19.4928 2.79062C19.915 3.08437 20.3281 3.81875 20.3281 4.28691C20.3281 4.72754 20.1078 5.32421 19.4469 6.67363L18.8594 7.89453H18.4188H17.969L17.3172 6.53593C16.9592 5.79238 16.6195 5.00293 16.5645 4.78262C16.3533 3.95644 16.8123 3.02011 17.6201 2.64375C18.1709 2.38671 18.9971 2.45097 19.4928 2.79062ZM14.8295 4.58984C15.1233 4.67246 15.1783 4.72754 15.2334 5.03047C15.2977 5.40683 15.9127 6.89394 16.2432 7.4998L16.4635 7.89453H14.7836H13.1129L12.8742 7.6375C12.5529 7.30703 12.4336 6.97656 12.4336 6.40742C12.4336 5.85664 12.608 5.46191 13.0211 5.05801C13.526 4.57148 14.1594 4.40625 14.8295 4.58984ZM23.4859 4.81015C24.4957 5.39766 24.716 6.83886 23.9266 7.72929C23.8072 7.87617 23.5961 7.89453 22.0998 7.89453C21.1818 7.89453 20.4199 7.87617 20.4199 7.84863C20.4199 7.82109 20.5576 7.51816 20.732 7.17851C21.1451 6.35234 21.5031 5.47109 21.5766 5.07637C21.6225 4.83769 21.7051 4.71836 21.9254 4.62656C22.3293 4.44297 22.9902 4.5164 23.4859 4.81015ZM19.7774 12.7139V16.1562H18.5473C17.868 16.1562 17.2529 16.1287 17.1703 16.1012C17.0418 16.0553 17.0234 15.6605 17.0234 12.6588V9.27148H18.4004H19.7774V12.7139ZM32.5188 9.38164C32.6014 9.46426 32.6289 10.3547 32.6289 12.824V16.1562H26.8916H21.1543V12.7139V9.27148H26.7815C31.0316 9.27148 32.4361 9.29902 32.5188 9.38164ZM5.95275 17.9096C5.659 18.1207 5.15411 18.5154 4.842 18.7908L4.26368 19.2957V18.4145V17.5332H5.38361H6.49435L5.95275 17.9096ZM31.2979 18.9102L29.9209 20.2871H26.6529H23.3758L22.9443 19.773C22.4945 19.259 21.3012 18.2125 20.6494 17.7811L20.2822 17.5332H26.4785H32.6748L31.2979 18.9102ZM15.7658 19.9566C19.0246 20.9297 21.4848 23.6469 22.0631 26.9332C22.265 28.0348 22.4395 27.7777 19.5938 30.6143C16.8307 33.3682 16.6746 33.5885 16.7756 34.332C16.849 34.892 17.152 35.3051 17.666 35.5437C17.9139 35.6631 18.1158 35.7824 18.125 35.8191C18.125 35.8559 17.7395 36.0762 17.2713 36.3057C15.1875 37.3154 12.865 37.4898 10.6895 36.7922C7.9631 35.9201 5.77833 33.6711 4.94298 30.8896C4.61251 29.7789 4.52989 27.8603 4.76857 26.7037C5.36525 23.757 7.53165 21.1959 10.2856 20.2045C11.5891 19.7363 12.149 19.6445 13.627 19.6812C14.7285 19.7088 15.0957 19.7547 15.7658 19.9566ZM27.1211 23.0869C26.3408 23.8672 25.6982 24.4914 25.6891 24.4822C25.6799 24.473 25.5606 24.1793 25.4229 23.8213C25.2943 23.4725 25.0006 22.8391 24.7803 22.426L24.3764 21.6641H26.4602H28.544L27.1211 23.0869Z" fill="#33373A"/>
<path d="M12.9109 21.508C12.7548 21.6732 12.7089 21.8385 12.7089 22.1873C12.7089 22.6555 12.6998 22.6646 12.3693 22.7748C10.8822 23.2522 10.0468 25.0605 10.6343 26.4834C10.8363 26.9607 11.2494 27.3555 11.9929 27.7869L12.7089 28.2092V30.2104V32.2207H12.4886C12.3693 32.2207 11.9837 32.0738 11.6441 31.8994C10.8914 31.523 10.6619 31.5047 10.3681 31.8076C10.1111 32.0555 10.0927 32.1932 10.2396 32.5236C10.4048 32.9 11.4605 33.4324 12.2775 33.5518L12.7089 33.616V34.1117C12.7089 34.7084 12.9109 34.9746 13.3791 34.9746C13.8289 34.9746 14.0216 34.7176 14.0675 34.0566C14.0951 33.7078 14.1502 33.5059 14.2236 33.5059C14.4898 33.5059 15.472 32.9184 15.7841 32.5695C15.9769 32.3676 16.2523 31.927 16.4084 31.5965C16.6378 31.0916 16.6929 30.8805 16.6929 30.293C16.7021 29.6596 16.6654 29.5127 16.3808 28.9527C16.0045 28.2275 15.4628 27.7594 14.6183 27.4381L14.0859 27.2453V25.648C14.0859 23.8488 14.0767 23.8764 14.7377 24.3262C15.2334 24.6566 15.4904 24.675 15.7933 24.3721C16.3166 23.8488 15.7841 23.1236 14.6367 22.7932L14.1043 22.6371L14.0675 22.1322C14.0308 21.7559 13.9757 21.5906 13.8105 21.4621C13.5259 21.2326 13.1496 21.251 12.9109 21.508ZM12.7089 25.391C12.7089 26.7404 12.7365 26.6945 12.1857 26.2814C11.8277 26.0244 11.7175 25.5746 11.8828 25.033C11.9929 24.6658 12.4152 24.1426 12.608 24.1426C12.6722 24.1426 12.7089 24.5557 12.7089 25.391ZM14.7927 29.0629C15.1691 29.3475 15.417 29.9809 15.3343 30.4857C15.2242 31.1834 14.8478 31.7066 14.2052 32.0738C14.1134 32.1289 14.0859 31.7709 14.0859 30.4307V28.7232L14.297 28.7783C14.4072 28.815 14.6275 28.9436 14.7927 29.0629Z" fill="#33373A"/>
<path d="M29.5078 25.5198C29.4068 25.6207 29.3242 25.8135 29.3242 25.9512C29.3242 26.3092 33.2439 35.902 33.4734 36.0948C33.8682 36.4436 34.5566 36.1407 34.5566 35.6266C34.5566 35.443 30.8939 26.3459 30.5635 25.7034C30.3523 25.2903 29.8291 25.1985 29.5078 25.5198Z" fill="#33373A"/>
<path d="M26.7631 28.007C25.9553 28.2549 25.2944 29.026 25.1475 29.898C25.0098 30.7426 25.5514 31.9451 26.3225 32.5051C26.9284 32.9457 27.2956 33.0742 27.9932 33.0834C29.0948 33.0926 29.8751 32.551 30.2055 31.5412C30.6186 30.3111 29.8934 28.7873 28.6174 28.209C28.0575 27.9519 27.2313 27.8601 26.7631 28.007ZM28.1952 29.5308C29.0948 30.1092 29.2141 31.3301 28.4155 31.6697C27.4149 32.0828 26.1481 30.7793 26.6163 29.8062C26.8825 29.2371 27.5618 29.1178 28.1952 29.5308Z" fill="#33373A"/>
<path d="M34.9697 28.8978C34.0609 29.3292 33.6111 30.0269 33.6111 31.0366C33.6111 32.5329 34.8044 33.7722 36.3283 33.8548C37.1636 33.9099 37.641 33.7171 38.1734 33.1296C39.2933 31.8812 38.7701 29.8524 37.1086 28.9987C36.5486 28.7142 35.4746 28.6591 34.9697 28.8978ZM36.5761 30.2472C36.9984 30.4675 37.3289 30.9724 37.3839 31.4681C37.4115 31.8444 37.3839 31.9454 37.1728 32.2024C36.9617 32.4503 36.8607 32.4962 36.5302 32.4962C36.007 32.4962 35.7591 32.3952 35.4011 32.028C34.6209 31.2294 34.9054 30.1095 35.8877 30.1095C36.1171 30.1095 36.4293 30.1737 36.5761 30.2472Z" fill="#33373A"/>
</g>
<defs>
<clipPath id="clip0_819_23105">
<rect width="47" height="47" fill="white" transform="translate(0.5)"/>
</clipPath>
</defs>
</svg>
