<svg width="19" height="17" viewBox="0 0 19 17" fill="none" xmlns="http://www.w3.org/2000/svg">
<path d="M9.39371 16.6636C9.13163 16.6636 8.878 16.6297 8.66664 16.5537C5.43708 15.4461 0.305298 11.5149 0.305298 5.70673C0.305298 2.74771 2.69788 0.34668 5.63999 0.34668C7.06877 0.34668 8.40456 0.904667 9.39371 1.90228C10.3829 0.904667 11.7187 0.34668 13.1474 0.34668C16.0896 0.34668 18.4821 2.75617 18.4821 5.70673C18.4821 11.5233 13.3503 15.4461 10.1208 16.5537C9.90943 16.6297 9.6558 16.6636 9.39371 16.6636ZM5.63999 1.61483C3.39959 1.61483 1.57345 3.44942 1.57345 5.70673C1.57345 11.481 7.12795 14.6937 9.0809 15.3616C9.23308 15.4123 9.5628 15.4123 9.71498 15.3616C11.6595 14.6937 17.2224 11.4895 17.2224 5.70673C17.2224 3.44942 15.3963 1.61483 13.1559 1.61483C11.8708 1.61483 10.6788 2.21509 9.90943 3.25497C9.67271 3.57624 9.13163 3.57624 8.89491 3.25497C8.10865 2.20664 6.92505 1.61483 5.63999 1.61483Z" fill="#33373A"/>
</svg>
