<svg width="16" height="16" viewBox="0 0 16 16" fill="none" xmlns="http://www.w3.org/2000/svg">
<path d="M0.587681 0.191224C0.381431 0.285755 0.248228 0.423255 0.157994 0.633802C0.0763534 0.835755 0.0763534 0.973255 0.157994 1.17521C0.20526 1.28693 1.22362 2.33107 3.56542 4.67286L6.90409 8.01583L3.54393 11.376C-0.0740372 15.0026 0.0419784 14.8736 0.110728 15.2475C0.166588 15.5526 0.463072 15.849 0.76815 15.9049C1.14198 15.9736 1.01307 16.0897 4.63963 12.4717L7.99979 9.11154L11.3642 12.4717C14.9865 16.0897 14.8576 15.9736 15.2314 15.9049C15.5365 15.849 15.833 15.5526 15.8889 15.2475C15.9576 14.8736 16.0736 15.0026 12.4556 11.376L9.09549 8.01583L12.4556 4.65138C16.0736 1.02911 15.9576 1.15802 15.8889 0.784193C15.833 0.479115 15.5365 0.182631 15.2314 0.126771C14.8576 0.0580206 14.9865 -0.0579948 11.3599 3.55997L7.99979 6.92013L4.65682 3.58146C2.31502 1.23966 1.27088 0.221302 1.15917 0.174037C0.948619 0.0880995 0.798228 0.0923958 0.587681 0.191224Z" fill="black"/>
</svg>
