<svg width="15" height="13" viewBox="0 0 15 13" fill="none" xmlns="http://www.w3.org/2000/svg">
<path d="M12.0194 0.572723C10.0014 1.95109 7.78341 4.47316 5.6723 7.1317L5.34763 7.57348L3.98201 6.71752C2.27794 5.5075 2.07787 5.36721 1.98818 5.34616C1.83985 5.30758 1.69842 5.4128 1.19824 5.92487C0.608372 6.53163 0.594574 6.5632 0.801545 6.86833C0.873985 6.97706 1.33622 7.63994 1.83295 8.3414C2.86781 9.80745 3.89922 11.3296 4.34766 12.0521C4.72694 12.8183 4.72694 12.818 4.72694 12.818C4.72694 12.818 4.99272 12.8865 5.29628 12.3639C6.02068 11.1082 7.06471 8.84515 7.96504 7.50887C9.58842 4.4948 11.9745 2.73936 13.5647 1.18913C14.1201 0.645502 14.3168 0.79719 14.3168 0.656898C14.3168 0.534142 14.2961 0.492056 14.2029 0.40788L14.0926 0.306168C14.0926 0.306168 13.3428 0.306457 13.2509 0.306168C13.159 0.305879 12.8386 0.368159 12.5744 0.40788L12.0194 0.572723Z" fill="#33373A"/>
</svg>
