<svg width="21" height="21" viewBox="0 0 21 21" fill="none" xmlns="http://www.w3.org/2000/svg">
<path d="M17.4439 0.165038C17.124 0.247069 16.9764 0.316796 16.6934 0.505467C16.5129 0.624413 7.16543 9.92266 7.00957 10.14C6.92344 10.259 5.66016 14.742 5.66016 14.9307C5.66016 15.1604 5.92676 15.4229 6.16055 15.4229C6.34102 15.4229 10.8281 14.1555 10.943 14.0734C11.0045 14.0283 13.1701 11.875 15.7582 9.28281C19.1912 5.8457 20.5037 4.50449 20.6268 4.31172C20.9303 3.83594 21.0574 3.2043 20.9631 2.64238C20.9344 2.48242 20.84 2.21172 20.7457 2.01074C20.598 1.69902 20.5201 1.60469 19.9992 1.08379C19.4783 0.56289 19.384 0.489061 19.0723 0.337304C18.5186 0.0707026 18.0059 0.0173817 17.4439 0.165038ZM18.6334 1.28066C18.859 1.39141 19.6916 2.22812 19.8146 2.46191C19.8967 2.61777 19.9131 2.70801 19.9131 3.03613C19.9131 3.53242 19.8393 3.69238 19.3717 4.18047L19.0353 4.5332L17.7926 3.29043L16.5498 2.04766L16.9107 1.70312C17.1117 1.51445 17.3537 1.32168 17.4521 1.27246C17.809 1.10019 18.2848 1.1043 18.6334 1.28066ZM17.0625 4.04101L18.2725 5.25098L14.4457 9.07363L10.623 12.9004L9.41309 11.6904C8.74863 11.026 8.20312 10.4641 8.20312 10.4395C8.20312 10.3861 15.7582 2.83105 15.8115 2.83105C15.8361 2.83105 16.398 3.37656 17.0625 4.04101ZM9.58945 13.409C9.43769 13.4582 6.95215 14.1432 6.94395 14.1391C6.93984 14.135 7.06699 13.6674 7.22285 13.1055C7.37871 12.5395 7.54687 11.9365 7.59609 11.7561L7.68223 11.4361L8.6584 12.4123C9.1998 12.9537 9.61406 13.4008 9.58945 13.409Z" fill="#33373A"/>
<path d="M1.96875 2.19935C1.11152 2.42904 0.451172 3.04428 0.147656 3.8974L0.0205078 4.24603V11.5263C0.0205078 18.4703 0.0246094 18.8189 0.0943359 19.0486C0.246094 19.5408 0.410156 19.8156 0.779297 20.1847C1.0377 20.4431 1.20586 20.5744 1.42324 20.681C2.02207 20.9804 1.43555 20.964 10.0898 20.9517L17.8623 20.9394L18.1371 20.8328C18.9451 20.5169 19.5152 19.9386 19.7818 19.1552C19.8721 18.8927 19.8721 18.8517 19.8844 16.2431C19.8967 13.8683 19.8926 13.5853 19.8311 13.4704C19.7449 13.3064 19.5686 13.2079 19.3635 13.2079C19.2281 13.2079 19.1625 13.2367 19.0395 13.3474L18.8877 13.4869L18.8672 16.0872C18.8467 18.6753 18.8467 18.6835 18.7523 18.9173C18.5842 19.3357 18.2684 19.6515 17.85 19.8197L17.6162 19.914L10.0939 19.9263C5.12695 19.9304 2.49375 19.9222 2.34199 19.8935C1.8498 19.8033 1.41094 19.4669 1.20586 19.0199L1.08691 18.7656V11.5468V4.32807L1.20586 4.06967C1.35762 3.74154 1.70625 3.40932 2.03848 3.27396L2.27637 3.17963L4.86035 3.15912C7.74785 3.13451 7.58379 3.15502 7.73144 2.8433C7.82578 2.64643 7.78477 2.45365 7.6043 2.27728L7.46074 2.13373L4.82754 2.13783C2.64141 2.13783 2.15742 2.15014 1.96875 2.19935Z" fill="#33373A"/>
</svg>
