<svg width="21" height="22" viewBox="0 0 21 22" fill="none" xmlns="http://www.w3.org/2000/svg">
<path d="M1.33302 0.557421C0.725986 0.709179 0.221494 1.20957 0.057432 1.82891C0.0123148 2.00117 1.01389e-05 3.40391 1.01389e-05 10.1182C1.01389e-05 18.9652 -0.0122946 18.4484 0.233799 18.875C0.385557 19.1293 0.689072 19.4246 0.926963 19.5436C1.03771 19.5969 2.36251 20.0562 3.87599 20.5607L6.62403 21.4795H6.99317C7.44434 21.4795 7.69864 21.3975 8.03907 21.1473C8.31388 20.9463 8.53536 20.6428 8.65431 20.2982C8.71993 20.1096 8.73634 19.9619 8.73634 19.4697V18.875H10.2867C11.4557 18.875 11.8986 18.8586 12.1037 18.8176C12.9527 18.6371 13.7074 17.9029 13.9248 17.0498C14.015 16.693 14.015 12.4109 13.9248 12.2305C13.7936 11.9762 13.4531 11.8244 13.1742 11.8982C12.9856 11.9516 12.7682 12.1648 12.7149 12.3576C12.6902 12.4396 12.6738 13.3502 12.6738 14.6094V16.7217L12.5754 16.9309C12.5221 17.0416 12.4031 17.2016 12.3047 17.2877C11.993 17.5543 11.9356 17.5625 10.2457 17.5625H8.73634L8.72813 10.557L8.71583 3.55566L8.58868 3.28496C8.30157 2.68203 8.02266 2.48926 6.86602 2.10371L6.0088 1.8166H8.88399C12.0791 1.8125 11.9725 1.80429 12.3047 2.0873C12.4031 2.17344 12.5221 2.3334 12.5754 2.44414L12.6738 2.65332V4.76562C12.6738 6.06582 12.6902 6.93535 12.7149 7.02969C12.7723 7.23066 13.0266 7.45625 13.244 7.49316C13.4613 7.53008 13.7607 7.39062 13.892 7.18965L13.9863 7.05019V4.81074C13.9863 2.3416 13.9863 2.32519 13.7279 1.8125C13.6418 1.64023 13.4859 1.43515 13.285 1.23008C13.0348 0.971678 12.9076 0.881443 12.6287 0.750195C12.44 0.65996 12.1734 0.569725 12.0422 0.545116C11.6731 0.475389 1.60782 0.487694 1.33302 0.557421ZM4.54044 2.71894C6.8168 3.47773 7.27208 3.6418 7.3418 3.72793C7.42384 3.83457 7.42384 3.88379 7.42384 11.8695V19.9086L7.28438 20.048C7.19005 20.1424 7.10802 20.1875 7.02598 20.1875C6.91524 20.1875 1.71856 18.4771 1.52989 18.3787C1.48478 18.3541 1.41095 18.2762 1.37403 18.2023C1.31251 18.0875 1.30841 17.4189 1.32071 10.073C1.33302 2.13242 1.33302 2.0668 1.41505 1.97656C1.50528 1.87402 1.62013 1.8207 1.74317 1.8166C1.78829 1.8125 3.04747 2.21855 4.54044 2.71894Z" fill="#33373A"/>
<path d="M16.7959 5.80741C16.6277 5.88123 16.4555 6.09041 16.4227 6.26268C16.357 6.61541 16.3652 6.62772 17.608 7.87049L18.7647 9.03123H15.3193H11.874L11.7141 9.12557C11.267 9.37576 11.2793 10.032 11.7346 10.2617C11.8863 10.3396 11.9889 10.3437 15.3276 10.3437H18.7647L17.608 11.5004C16.3611 12.7513 16.357 12.7595 16.4268 13.1205C16.4637 13.3215 16.7098 13.5676 16.9108 13.6045C17.284 13.6742 17.2266 13.7234 19.1256 11.8285C20.0936 10.8646 20.9098 10.0279 20.9426 9.96638C21.0164 9.82283 21.0164 9.55213 20.9426 9.40857C20.8483 9.23631 17.4276 5.84022 17.2963 5.791C17.1404 5.73358 16.9477 5.74178 16.7959 5.80741Z" fill="#33373A"/>
</svg>
