<svg width="27" height="27" viewBox="0 0 27 27" fill="none" xmlns="http://www.w3.org/2000/svg">
<path d="M13.5 24.3561C13.1512 24.3561 12.8137 24.3111 12.5325 24.2098C8.235 22.7361 1.40625 17.5048 1.40625 9.77606C1.40625 5.83856 4.59 2.64355 8.505 2.64355C10.4062 2.64355 12.1837 3.38606 13.5 4.71356C14.8162 3.38606 16.5937 2.64355 18.495 2.64355C22.41 2.64355 25.5937 5.84981 25.5937 9.77606C25.5937 17.5161 18.765 22.7361 14.4675 24.2098C14.1862 24.3111 13.8487 24.3561 13.5 24.3561ZM8.505 4.33106C5.52375 4.33106 3.09375 6.77231 3.09375 9.77606C3.09375 17.4598 10.485 21.7348 13.0837 22.6236C13.2862 22.6911 13.725 22.6911 13.9275 22.6236C16.515 21.7348 23.9175 17.4711 23.9175 9.77606C23.9175 6.77231 21.4875 4.33106 18.5062 4.33106C16.7962 4.33106 15.21 5.12981 14.1862 6.51356C13.8712 6.94106 13.1512 6.94106 12.8362 6.51356C11.79 5.11856 10.215 4.33106 8.505 4.33106Z" fill="#33373A"/>
</svg>
