<svg width="25" height="25" viewBox="0 0 25 25" fill="none" xmlns="http://www.w3.org/2000/svg">
<path d="M21.875 9.11523H9.375C8.94792 9.11523 8.59375 8.76107 8.59375 8.33398C8.59375 7.9069 8.94792 7.55273 9.375 7.55273H21.875C22.3021 7.55273 22.6562 7.9069 22.6562 8.33398C22.6562 8.76107 22.3021 9.11523 21.875 9.11523Z" fill="#DA2D70"/>
<path d="M18.9479 18.4902H7.85416C6.82291 18.4902 5.83332 18.0527 5.13541 17.2923C4.43749 16.5319 4.08333 15.5111 4.16667 14.4798L5.03125 4.10482C5.0625 3.7819 4.94791 3.46941 4.72916 3.22982C4.51041 2.99024 4.20833 2.86523 3.88541 2.86523H2.08333C1.65625 2.86523 1.30208 2.51107 1.30208 2.08398C1.30208 1.6569 1.65625 1.30273 2.08333 1.30273H3.89584C4.65625 1.30273 5.37499 1.62565 5.88541 2.17773C6.16666 2.49023 6.37499 2.85482 6.48958 3.26107H19.5C20.5521 3.26107 21.5208 3.67773 22.2292 4.42773C22.9271 5.18815 23.2812 6.17774 23.1979 7.22982L22.6354 15.0423C22.5208 16.9486 20.8542 18.4902 18.9479 18.4902ZM6.54166 4.81315L5.72916 14.6048C5.67708 15.209 5.875 15.7819 6.28125 16.2298C6.6875 16.6777 7.24999 16.9173 7.85416 16.9173L18.9479 14.4798C20.0312 14.4798 21.0104 16.0007 21.0937 14.9173L21.6562 7.10482C21.6979 6.49024 21.5 5.90691 21.0937 5.47983C20.6875 5.04233 20.125 4.80272 19.5104 4.80272H6.54166V4.81315Z" fill="#DA2D70"/>
<path d="M16.9271 23.6979C15.7813 23.6979 14.8438 22.7604 14.8438 21.6146C14.8438 20.4688 15.7813 19.5312 16.9271 19.5312C18.0729 19.5312 19.0104 20.4688 19.0104 21.6146C19.0104 22.7604 18.0729 23.6979 16.9271 23.6979ZM16.9271 21.0938C16.6354 21.0938 16.4063 21.3229 16.4063 21.6146C16.4063 21.9063 16.6354 22.1354 16.9271 22.1354C17.2188 22.1354 17.4479 21.9063 17.4479 21.6146C17.4479 21.3229 17.2188 21.0938 16.9271 21.0938Z" fill="#DA2D70"/>
<path d="M8.59375 23.6979C7.44792 23.6979 6.51042 22.7604 6.51042 21.6146C6.51042 20.4688 7.44792 19.5312 8.59375 19.5312C9.73959 19.5312 10.6771 20.4688 10.6771 21.6146C10.6771 22.7604 9.73959 23.6979 8.59375 23.6979ZM8.59375 21.0938C8.30208 21.0938 8.07292 21.3229 8.07292 21.6146C8.07292 21.9063 8.30208 22.1354 8.59375 22.1354C8.88542 22.1354 9.11459 21.9063 9.11459 21.6146C9.11459 21.3229 8.88542 21.0938 8.59375 21.0938Z" fill="#DA2D70"/>
</svg>
