<svg width="20" height="19" viewBox="0 0 20 19" fill="none" xmlns="http://www.w3.org/2000/svg">
<path d="M16.6641 6.92725H7.16406C6.83948 6.92725 6.57031 6.65808 6.57031 6.3335C6.57031 6.00891 6.83948 5.73975 7.16406 5.73975H16.6641C16.9886 5.73975 17.2578 6.00891 17.2578 6.3335C17.2578 6.65808 16.9886 6.92725 16.6641 6.92725Z" fill="#22232C"/>
<path d="M14.4396 14.0522H6.00839C5.22464 14.0522 4.47255 13.7197 3.94214 13.1418C3.41172 12.5639 3.14256 11.7881 3.20589 11.0043L3.86298 3.11933C3.88673 2.87391 3.79964 2.63642 3.63339 2.45433C3.46714 2.27225 3.23755 2.17725 2.99214 2.17725H1.62256C1.29798 2.17725 1.02881 1.90808 1.02881 1.5835C1.02881 1.25891 1.29798 0.989746 1.62256 0.989746H3.00006C3.57798 0.989746 4.12422 1.23516 4.51214 1.65474C4.72589 1.89224 4.88422 2.16933 4.9713 2.47808H14.8592C15.6588 2.47808 16.3951 2.79475 16.9334 3.36475C17.4638 3.94266 17.733 4.69475 17.6696 5.49433L17.2421 11.4318C17.1551 12.8806 15.8884 14.0522 14.4396 14.0522ZM5.01089 3.65766L4.39339 11.0993C4.35381 11.5585 4.50422 11.9939 4.81297 12.3343C5.12172 12.6747 5.54922 12.8568 6.00839 12.8568H14.4396C15.263 12.8568 16.0071 12.1602 16.0705 11.3368L16.498 5.39933C16.5296 4.93225 16.3792 4.48892 16.0705 4.16434C15.7617 3.83184 15.3342 3.64973 14.8671 3.64973H5.01089V3.65766Z" fill="#33373A"/>
<path d="M12.9036 18.0104C12.0328 18.0104 11.3203 17.2979 11.3203 16.4271C11.3203 15.5563 12.0328 14.8438 12.9036 14.8438C13.7745 14.8438 14.487 15.5563 14.487 16.4271C14.487 17.2979 13.7745 18.0104 12.9036 18.0104ZM12.9036 16.0313C12.682 16.0313 12.5078 16.2054 12.5078 16.4271C12.5078 16.6488 12.682 16.8229 12.9036 16.8229C13.1253 16.8229 13.2995 16.6488 13.2995 16.4271C13.2995 16.2054 13.1253 16.0313 12.9036 16.0313Z" fill="#33373A"/>
<path d="M6.57015 18.0104C5.69932 18.0104 4.98682 17.2979 4.98682 16.4271C4.98682 15.5563 5.69932 14.8438 6.57015 14.8438C7.44098 14.8438 8.15348 15.5563 8.15348 16.4271C8.15348 17.2979 7.44098 18.0104 6.57015 18.0104ZM6.57015 16.0313C6.34848 16.0313 6.17432 16.2054 6.17432 16.4271C6.17432 16.6488 6.34848 16.8229 6.57015 16.8229C6.79182 16.8229 6.96598 16.6488 6.96598 16.4271C6.96598 16.2054 6.79182 16.0313 6.57015 16.0313Z" fill="#33373A"/>
</svg>
