<svg width="149" height="49" viewBox="0 0 149 49" fill="none" xmlns="http://www.w3.org/2000/svg">
<path d="M36.6936 28.751L34.5906 13.9129L34.4971 13.8194L29.2162 28.2836H28.3049L28.0245 28.0032L22.4865 13.9129L22.4164 13.983L20.5937 28.751H19.7993L21.3181 16.4132C21.4116 15.6966 21.4739 15.0189 21.5051 14.3802C21.5518 13.7415 21.5752 13.282 21.5752 13.0016V12.5576L21.7387 12.394H23.2576L28.9124 26.6947L34.1934 12.394H35.7122L38.0256 28.751H36.6936ZM43.4378 28.751V12.394H44.723V28.751H43.4378ZM51.0814 28.751V18.9368C51.0814 17.6906 51.058 16.5378 51.0113 15.4785C50.9645 14.4192 50.9178 13.6714 50.8711 13.2353L50.801 12.5576L50.9645 12.394H51.502L63.3958 26.5311V12.394H64.2136V28.751H63.7463L51.8525 14.6373V28.751H51.0814ZM70.5682 28.751V12.394H71.8534V28.751H70.5682ZM94.1948 28.751L92.0918 13.9129L91.9983 13.8194L86.7174 28.2836H85.8061L85.5257 28.0032L79.9877 13.9129L79.9176 13.983L78.0949 28.751H77.3005L78.8193 16.4132C78.9128 15.6966 78.9751 15.0189 79.0063 14.3802C79.053 13.7415 79.0764 13.282 79.0764 13.0016V12.5576L79.2399 12.394H80.7588L86.4136 26.6947L91.6946 12.394H93.2134L95.5268 28.751H94.1948ZM102.061 23.7271L99.8875 28.751H99.0229L105.986 12.8146L105.846 12.5576V12.394H107.271L114.469 28.751H113.113L110.917 23.7271H102.061ZM107.715 16.4132C107.186 15.1981 106.757 14.2946 106.43 13.7026L102.388 23.0027H110.59L107.715 16.4132ZM118.897 28.751V12.394H120.182V28.05H124.715C125.541 28.05 126.273 28.0266 126.912 27.9799C127.551 27.9331 127.987 27.8786 128.22 27.8163L128.571 27.7462L128.734 27.8864V28.751H118.897Z" fill="#22232C"/>
<path d="M44.001 46.2865C43.3638 46.2865 42.786 46.1428 42.2675 45.8555C41.7553 45.5681 41.3524 45.1715 41.0588 44.6655C40.7652 44.1595 40.6184 43.5942 40.6184 42.9695C40.6184 42.3449 40.7652 41.7795 41.0588 41.2736C41.3524 40.7676 41.7553 40.3709 42.2675 40.0836C42.786 39.7962 43.3638 39.6525 44.001 39.6525C44.6382 39.6525 45.216 39.7962 45.7344 40.0836C46.2529 40.3709 46.6589 40.7676 46.9525 41.2736C47.2461 41.7795 47.3929 42.3449 47.3929 42.9695C47.3929 43.5942 47.2461 44.1595 46.9525 44.6655C46.6589 45.1715 46.2529 45.5681 45.7344 45.8555C45.216 46.1428 44.6382 46.2865 44.001 46.2865ZM44.001 45.996C44.5757 45.996 45.0973 45.8649 45.5658 45.6025C46.0343 45.3401 46.4028 44.9778 46.6714 44.5156C46.94 44.0533 47.0744 43.538 47.0744 42.9695C47.0744 42.4011 46.94 41.8857 46.6714 41.4235C46.4028 40.9612 46.0343 40.5989 45.5658 40.3366C45.0973 40.0742 44.5757 39.943 44.001 39.943C43.4263 39.943 42.9047 40.0742 42.4362 40.3366C41.9739 40.5989 41.6085 40.9612 41.3399 41.4235C41.0713 41.8857 40.937 42.4011 40.937 42.9695C40.937 43.538 41.0713 44.0533 41.3399 44.5156C41.6085 44.9778 41.9739 45.3401 42.4362 45.6025C42.9047 45.8649 43.4263 45.996 44.001 45.996ZM51.6326 41.4235C52.0823 41.4235 52.4821 41.5265 52.8319 41.7327C53.1817 41.9326 53.4535 42.2168 53.6471 42.5854C53.847 42.9477 53.947 43.3631 53.947 43.8316C53.947 44.3063 53.847 44.7311 53.6471 45.1059C53.4472 45.4744 53.1692 45.7649 52.8132 45.9773C52.4571 46.1834 52.0511 46.2865 51.5951 46.2865C51.0704 46.2865 50.6206 46.1553 50.2458 45.893C49.8772 45.6244 49.5961 45.2527 49.4025 44.7779C49.2151 44.3032 49.1214 43.7535 49.1214 43.1288C49.1214 42.3792 49.2089 41.7639 49.3838 41.2829C49.5587 40.8019 49.821 40.4271 50.1708 40.1585C50.5207 39.8837 50.9735 39.6775 51.5295 39.5401L53.6565 39.006L53.7127 39.3059L51.67 39.8025C51.1391 39.9336 50.7112 40.121 50.3864 40.3647C50.0615 40.6083 49.8179 40.9456 49.6555 41.3766C49.4993 41.8076 49.4212 42.3667 49.4212 43.0539V43.0726C49.5587 42.5666 49.8242 42.1668 50.2177 41.8732C50.6112 41.5734 51.0829 41.4235 51.6326 41.4235ZM51.6045 46.0054C51.998 46.0054 52.3478 45.9148 52.6539 45.7337C52.9662 45.5463 53.2067 45.2902 53.3754 44.9653C53.5503 44.6343 53.6377 44.2563 53.6377 43.8316C53.6377 43.413 53.5503 43.0445 53.3754 42.7259C53.2067 42.4011 52.9662 42.1512 52.6539 41.9763C52.3478 41.7951 51.998 41.7046 51.6045 41.7046C51.2109 41.7046 50.858 41.7951 50.5456 41.9763C50.2333 42.1512 49.9897 42.4011 49.8148 42.7259C49.6461 43.0445 49.5618 43.413 49.5618 43.8316C49.5618 44.2563 49.6492 44.6343 49.8242 44.9653C49.9991 45.2902 50.2396 45.5463 50.5456 45.7337C50.858 45.9148 51.2109 46.0054 51.6045 46.0054ZM58.363 41.3485C58.8065 41.3485 59.2094 41.4547 59.5717 41.6671C59.934 41.8732 60.2183 42.1668 60.4244 42.5479C60.6368 42.9227 60.743 43.3474 60.743 43.8222C60.743 44.2969 60.6368 44.7217 60.4244 45.0965C60.2183 45.4651 59.934 45.7555 59.5717 45.9679C59.2094 46.1741 58.8065 46.2771 58.363 46.2771C57.8945 46.2771 57.4729 46.1584 57.0981 45.9211C56.7295 45.6837 56.4546 45.3589 56.2735 44.9466V48.0668H55.9643V41.386H56.2641V42.7165C56.4453 42.2918 56.7201 41.9576 57.0887 41.7139C57.4635 41.4703 57.8883 41.3485 58.363 41.3485ZM58.3536 45.996C58.7472 45.996 59.1001 45.9055 59.4124 45.7243C59.731 45.5369 59.9809 45.2808 60.162 44.956C60.3432 44.6249 60.4338 44.247 60.4338 43.8222C60.4338 43.3974 60.3432 43.0195 60.162 42.6884C59.9809 42.3573 59.731 42.1012 59.4124 41.9201C59.1001 41.7327 58.7472 41.639 58.3536 41.639C57.9601 41.639 57.604 41.7327 57.2855 41.9201C56.9731 42.1012 56.7264 42.3573 56.5452 42.6884C56.3641 43.0195 56.2735 43.3974 56.2735 43.8222C56.2735 44.247 56.3641 44.6249 56.5452 44.956C56.7264 45.2808 56.9731 45.5369 57.2855 45.7243C57.604 45.9055 57.9601 45.996 58.3536 45.996ZM64.2908 41.3485C64.8718 41.3485 65.3153 41.4984 65.6214 41.7983C65.9337 42.0981 66.0899 42.5323 66.0899 43.1007V46.249H65.79V45.2745C65.6339 45.5869 65.3996 45.8336 65.0873 46.0148C64.7812 46.1897 64.4127 46.2771 63.9816 46.2771C63.4382 46.2771 63.0103 46.1522 62.6979 45.9023C62.3919 45.6525 62.2388 45.3214 62.2388 44.9091C62.2388 44.5156 62.3794 44.197 62.6605 43.9534C62.9416 43.7035 63.3913 43.5786 64.0097 43.5786H65.7807V43.1007C65.7807 42.6197 65.6526 42.2543 65.3965 42.0044C65.1466 41.7545 64.775 41.6296 64.2815 41.6296C63.9379 41.6296 63.6162 41.689 63.3164 41.8076C63.0165 41.9263 62.7604 42.0856 62.548 42.2855L62.3794 42.0606C62.6167 41.8358 62.901 41.6608 63.232 41.5359C63.5694 41.411 63.9223 41.3485 64.2908 41.3485ZM64.0004 46.0148C64.8749 46.0148 65.4683 45.6244 65.7807 44.8435V43.8316H64.0097C63.5038 43.8316 63.1321 43.9284 62.8947 44.122C62.6636 44.3094 62.548 44.5655 62.548 44.8904C62.548 45.2402 62.6761 45.515 62.9322 45.7149C63.1946 45.9148 63.5506 46.0148 64.0004 46.0148ZM70.2745 43.7004C70.6555 43.7691 70.9491 43.9065 71.1553 44.1127C71.3614 44.3126 71.4645 44.5655 71.4645 44.8716C71.4645 45.1527 71.3708 45.4026 71.1834 45.6212C71.0022 45.8336 70.7586 45.9992 70.4525 46.1178C70.1527 46.2303 69.8278 46.2896 69.478 46.2959C69.1157 46.2959 68.7659 46.2397 68.4286 46.1272C68.0975 46.0148 67.8102 45.8461 67.5665 45.6212L67.7165 45.4057C67.9351 45.6119 68.2006 45.768 68.5129 45.8742C68.8252 45.9742 69.1469 46.0241 69.478 46.0241C69.9403 46.0179 70.3338 45.9086 70.6586 45.6962C70.9835 45.4776 71.1459 45.1933 71.1459 44.8435C71.1459 44.5312 71.0022 44.2876 70.7149 44.1127C70.4338 43.9378 70.0496 43.8503 69.5624 43.8503H68.8221V43.5879H69.5624C69.9809 43.5879 70.3244 43.5036 70.5931 43.335C70.8679 43.1663 71.0053 42.9414 71.0053 42.6603C71.0053 42.323 70.8554 42.0638 70.5556 41.8826C70.262 41.7014 69.8934 41.6109 69.4499 41.6109C68.9127 41.6109 68.3973 41.7545 67.9039 42.0419L67.7914 41.7889C68.06 41.639 68.338 41.5265 68.6254 41.4516C68.9189 41.3704 69.2032 41.3298 69.478 41.3298C70.009 41.3298 70.4494 41.4453 70.7992 41.6765C71.149 41.9076 71.3239 42.223 71.3239 42.6228C71.3239 42.8852 71.2271 43.1132 71.0334 43.3068C70.846 43.4942 70.5931 43.6254 70.2745 43.7004ZM76.3039 41.386H76.6131V45.7524L80.2674 41.386H80.5392V46.249H80.2299V41.8826L76.5663 46.249H76.3039V41.386ZM84.8408 43.7004C85.2218 43.7691 85.5154 43.9065 85.7216 44.1127C85.9277 44.3126 86.0308 44.5655 86.0308 44.8716C86.0308 45.1527 85.9371 45.4026 85.7497 45.6212C85.5685 45.8336 85.3249 45.9992 85.0188 46.1178C84.719 46.2303 84.3942 46.2896 84.0443 46.2959C83.682 46.2959 83.3322 46.2397 82.9949 46.1272C82.6638 46.0148 82.3765 45.8461 82.1329 45.6212L82.2828 45.4057C82.5014 45.6119 82.7669 45.768 83.0792 45.8742C83.3916 45.9742 83.7133 46.0241 84.0443 46.0241C84.5066 46.0179 84.9001 45.9086 85.225 45.6962C85.5498 45.4776 85.7122 45.1933 85.7122 44.8435C85.7122 44.5312 85.5685 44.2876 85.2812 44.1127C85.0001 43.9378 84.6159 43.8503 84.1287 43.8503H83.3884V43.5879H84.1287C84.5472 43.5879 84.8908 43.5036 85.1594 43.335C85.4342 43.1663 85.5717 42.9414 85.5717 42.6603C85.5717 42.323 85.4217 42.0638 85.1219 41.8826C84.8283 41.7014 84.4597 41.6109 84.0162 41.6109C83.479 41.6109 82.9637 41.7545 82.4702 42.0419L82.3577 41.7889C82.6263 41.639 82.9043 41.5265 83.1917 41.4516C83.4853 41.3704 83.7695 41.3298 84.0443 41.3298C84.5753 41.3298 85.0157 41.4453 85.3655 41.6765C85.7153 41.9076 85.8902 42.223 85.8902 42.6228C85.8902 42.8852 85.7934 43.1132 85.5998 43.3068C85.4124 43.4942 85.1594 43.6254 84.8408 43.7004ZM93.2877 39.69C94.106 39.69 94.7432 39.8837 95.1992 40.271C95.6614 40.652 95.8926 41.183 95.8926 41.8639C95.8926 42.551 95.6614 43.0882 95.1992 43.4755C94.7432 43.8566 94.106 44.0471 93.2877 44.0471H91.3294V46.249H91.0108V39.69H93.2877ZM93.3064 43.7566C94.0373 43.7566 94.5995 43.5942 94.993 43.2694C95.3866 42.9383 95.5834 42.4698 95.5834 41.8639C95.5834 41.2642 95.3866 40.8019 94.993 40.4771C94.5995 40.146 94.0373 39.9805 93.3064 39.9805H91.3294V43.7566H93.3064ZM97.6316 41.386H97.9408V46.249H97.6316V41.386ZM97.7815 40.1117C97.7003 40.1117 97.6285 40.0836 97.566 40.0273C97.5035 39.9649 97.4723 39.893 97.4723 39.8118C97.4723 39.7244 97.5004 39.6525 97.5566 39.5963C97.6191 39.5339 97.694 39.5026 97.7815 39.5026C97.8627 39.5026 97.9345 39.5339 97.997 39.5963C98.0595 39.6525 98.0907 39.7213 98.0907 39.8025C98.0907 39.8837 98.0595 39.9555 97.997 40.018C97.9345 40.0804 97.8627 40.1117 97.7815 40.1117ZM102.69 41.3485C103.296 41.3485 103.774 41.5265 104.124 41.8826C104.474 42.2324 104.649 42.7353 104.649 43.3912V46.249H104.339V43.4099C104.339 42.8352 104.193 42.398 103.899 42.0981C103.612 41.792 103.199 41.639 102.662 41.639C102.056 41.639 101.578 41.8201 101.229 42.1824C100.879 42.5385 100.704 43.0195 100.704 43.6254V46.249H100.395V41.386H100.694V42.576C100.851 42.1949 101.101 41.8951 101.444 41.6765C101.794 41.4578 102.209 41.3485 102.69 41.3485ZM109.342 45.9398C109.23 46.046 109.086 46.1303 108.911 46.1928C108.736 46.249 108.555 46.2771 108.368 46.2771C107.974 46.2771 107.668 46.1678 107.45 45.9492C107.237 45.7243 107.131 45.4182 107.131 45.0309V41.6577H106.213V41.386H107.131V40.3178H107.44V41.386H109.042V41.6577H107.44V44.9841C107.44 45.3151 107.521 45.5681 107.684 45.743C107.846 45.918 108.084 46.0054 108.396 46.0054C108.708 46.0054 108.971 45.9086 109.183 45.7149L109.342 45.9398ZM114.918 43.8597H110.655C110.661 44.272 110.758 44.6405 110.945 44.9653C111.133 45.2902 111.389 45.5432 111.714 45.7243C112.045 45.9055 112.413 45.996 112.819 45.996C113.15 45.996 113.456 45.9367 113.737 45.818C114.019 45.6931 114.25 45.5119 114.431 45.2745L114.628 45.4807C114.409 45.7368 114.143 45.9336 113.831 46.071C113.519 46.2084 113.181 46.2771 112.819 46.2771C112.344 46.2771 111.92 46.1741 111.545 45.9679C111.176 45.7555 110.886 45.4619 110.673 45.0871C110.461 44.7123 110.355 44.2876 110.355 43.8128C110.355 43.3381 110.452 42.9133 110.645 42.5385C110.845 42.1637 111.12 41.8732 111.47 41.6671C111.82 41.4547 112.21 41.3485 112.641 41.3485C113.066 41.3485 113.45 41.4516 113.794 41.6577C114.143 41.8639 114.418 42.1512 114.618 42.5198C114.818 42.8883 114.918 43.3068 114.918 43.7753V43.8597ZM112.641 41.6296C112.279 41.6296 111.951 41.7139 111.657 41.8826C111.364 42.0513 111.129 42.2886 110.955 42.5947C110.78 42.8946 110.683 43.2319 110.664 43.6067H114.628C114.603 43.2319 114.5 42.8946 114.318 42.5947C114.143 42.2886 113.909 42.0513 113.616 41.8826C113.328 41.7139 113.003 41.6296 112.641 41.6296ZM117.118 42.5572C117.262 42.1699 117.493 41.8732 117.812 41.6671C118.137 41.4547 118.536 41.3485 119.011 41.3485V41.6577H118.927C118.365 41.6577 117.924 41.8358 117.606 42.1918C117.287 42.5479 117.128 43.0382 117.128 43.6629V46.249H116.818V41.386H117.118V42.5572ZM124.708 43.8597H120.445C120.451 44.272 120.548 44.6405 120.735 44.9653C120.923 45.2902 121.179 45.5432 121.504 45.7243C121.835 45.9055 122.203 45.996 122.609 45.996C122.94 45.996 123.247 45.9367 123.528 45.818C123.809 45.6931 124.04 45.5119 124.221 45.2745L124.418 45.4807C124.199 45.7368 123.934 45.9336 123.621 46.071C123.309 46.2084 122.972 46.2771 122.609 46.2771C122.135 46.2771 121.71 46.1741 121.335 45.9679C120.966 45.7555 120.676 45.4619 120.464 45.0871C120.251 44.7123 120.145 44.2876 120.145 43.8128C120.145 43.3381 120.242 42.9133 120.436 42.5385C120.635 42.1637 120.91 41.8732 121.26 41.6671C121.61 41.4547 122 41.3485 122.431 41.3485C122.856 41.3485 123.24 41.4516 123.584 41.6577C123.934 41.8639 124.209 42.1512 124.408 42.5198C124.608 42.8883 124.708 43.3068 124.708 43.7753V43.8597ZM122.431 41.6296C122.069 41.6296 121.741 41.7139 121.447 41.8826C121.154 42.0513 120.92 42.2886 120.745 42.5947C120.57 42.8946 120.473 43.2319 120.454 43.6067H124.418C124.393 43.2319 124.29 42.8946 124.109 42.5947C123.934 42.2886 123.699 42.0513 123.406 41.8826C123.118 41.7139 122.794 41.6296 122.431 41.6296ZM127.78 46.2771C127.386 46.2771 127.015 46.2178 126.665 46.0991C126.321 45.9804 126.053 45.8243 125.859 45.6306L126.009 45.387C126.209 45.5619 126.465 45.7087 126.777 45.8274C127.096 45.9461 127.433 46.0054 127.789 46.0054C128.314 46.0054 128.701 45.918 128.951 45.743C129.201 45.5619 129.326 45.312 129.326 44.9934C129.326 44.7686 129.257 44.5905 129.12 44.4594C128.989 44.3282 128.823 44.2313 128.623 44.1689C128.423 44.1064 128.155 44.044 127.817 43.9815C127.424 43.9065 127.108 43.8316 126.871 43.7566C126.64 43.6754 126.443 43.5473 126.281 43.3724C126.118 43.1975 126.037 42.9539 126.037 42.6416C126.037 42.273 126.187 41.9669 126.487 41.7233C126.793 41.4734 127.236 41.3485 127.817 41.3485C128.117 41.3485 128.417 41.3954 128.717 41.4891C129.017 41.5765 129.26 41.6952 129.448 41.8451L129.288 42.0887C129.095 41.9388 128.867 41.8264 128.604 41.7514C128.348 41.6702 128.083 41.6296 127.808 41.6296C127.327 41.6296 126.965 41.7233 126.721 41.9107C126.477 42.0919 126.356 42.3324 126.356 42.6322C126.356 42.8696 126.424 43.057 126.562 43.1944C126.699 43.3318 126.868 43.4349 127.068 43.5036C127.274 43.5661 127.552 43.6317 127.902 43.7004C128.277 43.7691 128.579 43.8441 128.811 43.9253C129.042 44.0002 129.235 44.122 129.392 44.2907C129.554 44.4594 129.635 44.6936 129.635 44.9934C129.635 45.387 129.476 45.6993 129.157 45.9304C128.839 46.1616 128.38 46.2771 127.78 46.2771ZM133.68 45.9398C133.568 46.046 133.424 46.1303 133.249 46.1928C133.075 46.249 132.893 46.2771 132.706 46.2771C132.312 46.2771 132.006 46.1678 131.788 45.9492C131.575 45.7243 131.469 45.4182 131.469 45.0309V41.6577H130.551V41.386H131.469V40.3178H131.778V41.386H133.381V41.6577H131.778V44.9841C131.778 45.3151 131.86 45.5681 132.022 45.743C132.184 45.918 132.422 46.0054 132.734 46.0054C133.046 46.0054 133.309 45.9086 133.521 45.7149L133.68 45.9398Z" fill="#22232C"/>
<path d="M140 43.9049C139.724 43.9049 139.5 44.1287 139.5 44.4049C139.5 44.681 139.724 44.9049 140 44.9049V43.9049ZM35 44.9049C35.2761 44.9049 35.5 44.681 35.5 44.4049C35.5 44.1287 35.2761 43.9049 35 43.9049V44.9049ZM3 1.25098H146V0.250977H3V1.25098ZM147.5 2.75098V42.4049H148.5V2.75098H147.5ZM146 43.9049H140V44.9049H146V43.9049ZM0.5 2.75098V42.4049H1.5V2.75098H0.5ZM3 44.9049H35V43.9049H3V44.9049ZM0.5 42.4049C0.5 43.7856 1.61929 44.9049 3 44.9049V43.9049C2.17157 43.9049 1.5 43.2333 1.5 42.4049H0.5ZM147.5 42.4049C147.5 43.2333 146.828 43.9049 146 43.9049V44.9049C147.381 44.9049 148.5 43.7856 148.5 42.4049H147.5ZM146 1.25098C146.828 1.25098 147.5 1.92255 147.5 2.75098H148.5C148.5 1.37027 147.381 0.250977 146 0.250977V1.25098ZM3 0.250977C1.61929 0.250977 0.5 1.37026 0.5 2.75098H1.5C1.5 1.92255 2.17157 1.25098 3 1.25098V0.250977Z" fill="#22232C"/>
</svg>
