<svg width="20" height="17" viewBox="0 0 20 17" fill="none" xmlns="http://www.w3.org/2000/svg">
<path fill-rule="evenodd" clip-rule="evenodd" d="M10.9705 15.6526C10.7862 15.8231 10.7749 16.1107 10.9454 16.2951C11.1159 16.4794 11.4035 16.4907 11.5879 16.3202L19.4537 9.04592C19.5468 8.95987 19.5997 8.83888 19.5997 8.71214C19.5997 8.58539 19.5468 8.4644 19.4537 8.37835L11.5879 1.10409C11.4036 0.933605 11.1159 0.944844 10.9454 1.12919C10.7749 1.31353 10.7862 1.60118 10.9705 1.77166L17.9838 8.25749L1.22843 8.25749C0.977341 8.25749 0.773791 8.46104 0.773791 8.71213C0.773791 8.96322 0.977341 9.16677 1.22843 9.16677L17.9838 9.16678L10.9705 15.6526Z" fill="#33373A"/>
</svg>
