<svg width="20" height="17" viewBox="0 0 20 17" fill="none" xmlns="http://www.w3.org/2000/svg">
<path fill-rule="evenodd" clip-rule="evenodd" d="M9.61144 1.77415C9.79579 1.60367 9.80703 1.31602 9.63655 1.13168C9.46607 0.947333 9.17842 0.936094 8.99408 1.10658L1.12826 8.38084C1.03521 8.46689 0.9823 8.58788 0.9823 8.71462C0.9823 8.84137 1.03521 8.96236 1.12826 9.04841L8.99408 16.3227C9.17842 16.4932 9.46606 16.4819 9.63655 16.2976C9.80703 16.1132 9.79579 15.8256 9.61144 15.6551L2.59817 9.16926L19.3536 9.16926C19.6047 9.16926 19.8082 8.96571 19.8082 8.71462C19.8082 8.46353 19.6047 8.25998 19.3536 8.25998L2.59817 8.25998L9.61144 1.77415Z" fill="#33373A"/>
</svg>
