<svg width="17" height="17" viewBox="0 0 17 17" fill="none" xmlns="http://www.w3.org/2000/svg">
<path d="M1.42477 1.03096C1.2279 1.1212 1.10075 1.25245 1.01462 1.45342C0.936686 1.6462 0.936686 1.77745 1.01462 1.97022C1.05973 2.07686 2.0318 3.07354 4.26715 5.30889L7.45407 8.49991L4.24665 11.7073C0.793131 15.1691 0.903873 15.046 0.969498 15.4028C1.02282 15.6941 1.30583 15.9771 1.59704 16.0304C1.95387 16.096 1.83083 16.2067 5.29254 12.7532L8.49997 9.54581L11.7115 12.7532C15.1691 16.2067 15.0461 16.096 15.4029 16.0304C15.6941 15.9771 15.9771 15.6941 16.0304 15.4028C16.0961 15.046 16.2068 15.1691 12.7533 11.7073L9.54587 8.49991L12.7533 5.28839C16.2068 1.83077 16.0961 1.95381 16.0304 1.59698C15.9771 1.30577 15.6941 1.02276 15.4029 0.96944C15.0461 0.903814 15.1691 0.793072 11.7074 4.24659L8.49997 7.45401L5.30895 4.2671C3.0736 2.03174 2.07692 1.05967 1.97028 1.01456C1.7693 0.932526 1.62575 0.936626 1.42477 1.03096Z" fill="black"/>
</svg>
